<svg width="20" height="20" viewBox="0 0 20 20" fill="none" xmlns="http://www.w3.org/2000/svg"class="symbol">
    <defs>
    <g id="flywayUpgrade">
<g clip-path="url(#clip0_8_23026)">
<path d="M4.01459 12.5309C4.19994 12.247 4.31056 11.9209 4.33616 11.5828L2.84436 11.8911C2.78746 11.9014 2.7298 11.9069 2.67197 11.9077C2.46398 11.9076 2.26342 11.8303 2.10923 11.6907C1.95504 11.5511 1.85822 11.3592 1.83756 11.1522C1.81691 10.9453 1.87389 10.738 1.99745 10.5707C2.12101 10.4034 2.30234 10.2879 2.50622 10.2468L5.89426 9.55062C6.32332 9.46322 6.71191 9.23759 7.00051 8.90828C7.28911 8.57897 7.4618 8.16413 7.49214 7.72731L5.99371 8.03561C5.93794 8.04605 5.88137 8.05159 5.82464 8.05219C5.63051 8.05203 5.44244 7.98453 5.29252 7.8612C5.14259 7.73788 5.04009 7.56636 5.00249 7.37591C4.91299 6.91842 5.22129 6.48083 5.67546 6.388L9.0204 5.70178C9.67348 5.56586 10.0547 5.03213 10.2271 4.72714C10.3769 4.45389 10.4779 4.15659 10.5255 3.84863L0 6.01008V13.9663L2.70181 13.4127C2.96827 13.3604 3.22162 13.2555 3.44703 13.104C3.67244 12.9526 3.86539 12.7578 4.01459 12.5309V12.5309Z" fill="#6E6E6E"/>
<path d="M0 1.45533C1.19344 0.596719 3.76596 0 6.71309 0C9.66022 0 12.2327 0.596719 13.4262 1.45533V8.45261L11.7901 8.45483L11.7818 8.45492C10.9879 8.46358 10.2761 8.94425 9.97058 9.67589C9.66488 10.408 9.82384 11.2538 10.379 11.8248L10.3872 11.8333L10.8589 12.305L5.30823 17.8556C2.96512 17.7004 0.999203 17.1651 0 16.4462V15.6838L3.0731 15.0539C3.54794 14.957 3.99891 14.7671 4.40003 14.4951C4.80115 14.2232 5.14448 13.8745 5.41025 13.4693C5.8466 12.8113 6.05826 12.0298 6.0136 11.2415L6.1893 11.2051C7.14405 11.0095 7.99604 10.4592 8.53971 9.65359C8.99498 8.98822 9.21759 8.19104 9.1729 7.38606L9.35523 7.34959C10.3266 7.14737 11.1586 6.50755 11.6924 5.54286C12.183 4.65772 12.3554 3.60684 12.1598 2.65872L12.0836 2.28411C12.0588 2.16617 11.9885 2.06276 11.888 1.99634C11.7874 1.92992 11.6647 1.90586 11.5465 1.92939L0 4.29969V1.45533Z" fill="#6E6E6E"/>
<path fill-rule="evenodd" clip-rule="evenodd" d="M17.9176 10.1351L11.7017 10.1416C11.5788 10.1429 11.4683 10.2174 11.4208 10.331C11.3734 10.4446 11.3982 10.5753 11.4838 10.6634L13.1339 12.3134L7.91231 17.535L10.5176 20.1403L15.7392 14.9187L17.3849 16.5644C17.473 16.6501 17.6037 16.6749 17.7173 16.6274C17.8309 16.58 17.9054 16.4695 17.9067 16.3466L17.9176 10.1351Z" fill="#6E6E6E"/>
</g>
<defs>
<clipPath id="clip0_8_23026">
<rect width="20" height="20" fill="white"/>
</clipPath>
</defs>
    </g>
    </defs>
</svg>
