<!--
  ========================LICENSE_START=================================
  flyway-core
  ========================================================================
  Copyright (C) 2010 - 2024 Red Gate Software Ltd
  ========================================================================
  Licensed under the Apache License, Version 2.0 (the "License");
  you may not use this file except in compliance with the License.
  You may obtain a copy of the License at
  
       http://www.apache.org/licenses/LICENSE-2.0
  
  Unless required by applicable law or agreed to in writing, software
  distributed under the License is distributed on an "AS IS" BASIS,
  WITHOUT WARRANTIES OR CONDITIONS OF ANY KIND, either express or implied.
  See the License for the specific language governing permissions and
  limitations under the License.
  =========================LICENSE_END==================================
  -->
<svg class="symbol" width="22" height="22" viewBox="0 0 22 22" fill="none" xmlns="http://www.w3.org/2000/svg">
    <defs>
        <g id="infoOutlined">
            <path d="M10.0833 6.41683H11.9166V8.25016H10.0833V6.41683ZM10.0833 10.0835H11.9166V15.5835H10.0833V10.0835ZM11 1.8335C5.93998 1.8335 1.83331 5.94016 1.83331 11.0002C1.83331 16.0602 5.93998 20.1668 11 20.1668C16.06 20.1668 20.1666 16.0602 20.1666 11.0002C20.1666 5.94016 16.06 1.8335 11 1.8335ZM11 18.3335C6.95748 18.3335 3.66665 15.0427 3.66665 11.0002C3.66665 6.95766 6.95748 3.66683 11 3.66683C15.0425 3.66683 18.3333 6.95766 18.3333 11.0002C18.3333 15.0427 15.0425 18.3335 11 18.3335Z"
                  fill="#67A9F1"/>
        </g>
    </defs>
</svg>
