<svg class="symbol" width="410" height="206" viewBox="0 0 410 206" fill="none" xmlns="http://www.w3.org/2000/svg">
    <defs>
        <g id="upgrade">
            <rect x="0.5" width="409" height="206" rx="103" fill="#E8E8E8"/>
            <rect x="125" y="67" width="160" height="96" rx="4" fill="#67A9F1"/>
            <rect x="127" y="69" width="156" height="92" rx="2" stroke="black" stroke-opacity="0.87" stroke-width="4"/>
            <path fill-rule="evenodd" clip-rule="evenodd"
                  d="M219.601 133.957C222.519 132.078 226.258 130.95 230.333 130.95C236.615 130.95 242.095 133.63 245.005 137.607C245.738 137.569 246.477 137.551 247.222 137.551C255.221 137.551 262.57 139.723 268.356 143.355C270.594 141.797 273.544 140.85 276.778 140.85C278.258 140.85 279.679 141.048 281 141.413V159H129V148.823C129.043 148.837 129.086 148.852 129.129 148.867C129.044 148.404 129 147.932 129 147.451C129 141.983 134.671 137.551 141.667 137.551C146.244 137.551 150.253 139.448 152.479 142.291C155.686 141.359 159.156 140.85 162.778 140.85C163.522 140.85 164.26 140.871 164.99 140.914C167.899 136.933 173.382 134.25 179.667 134.25C182.963 134.25 186.039 134.988 188.639 136.265C196.229 127.206 197.446 115.355 198.396 106.101C198.998 100.23 199.493 95.4043 201.441 93H208.559C210.506 95.4043 211.002 100.23 211.604 106.101V106.101C212.475 114.588 213.571 125.259 219.601 133.957Z"
                  fill="#D8E7F9"/>
            <path d="M213 103C213 107.418 209.25 114.75 205 119C201 115 197 107.418 197 103C197 98.5817 200.582 95 205 95C209.418 95 213 98.5817 213 103Z" fill="#E65100"/>
            <path d="M211 101C211 104.314 208.188 109.812 205 113C202 110 199 104.314 199 101C199 97.6863 201.686 95 205 95C208.314 95 211 97.6863 211 101Z" fill="#FC9003"/>
            <path d="M209 99C209 101.209 207.125 104.875 205 107C203 105 201 101.209 201 99C201 96.7909 202.791 95 205 95C207.209 95 209 96.7909 209 99Z" fill="#FFEBCC"/>
            <path d="M185.265 89.9682L195.037 79.3643C195.576 78.779 196.55 79.0279 196.743 79.8003L200.773 95.9842C200.901 96.4957 200.609 97.0183 200.107 97.1786L186.304 101.584C185.659 101.79 185 101.308 185 100.631V90.6458C185 90.3947 185.094 90.1528 185.265 89.9682Z"
                  fill="#336DC2"/>
            <path d="M224.735 89.9682L214.963 79.3643C214.424 78.779 213.45 79.0279 213.257 79.8003L209.227 95.9842C209.099 96.4957 209.391 97.0183 209.893 97.1786L223.696 101.584C224.341 101.79 225 101.308 225 100.631V90.6458C225 90.3947 224.906 90.1528 224.735 89.9682Z"
                  fill="#336DC2"/>
            <path d="M193 55H217C213.994 47.9282 208.5 39 205 39C201.5 39 195.697 47.4933 193 55Z" fill="#336DC2"/>
            <path d="M193 55C193 55.0062 197.5 52 205 52C212 52 217 55.0078 217 55V81C216.537 87.6763 215.565 88.3488 211 97.5H199C194.544 88.2061 193.756 87.6957 193 81V55Z"
                  fill="white"/>
            <path d="M201.784 72.0037C202.005 71.6865 202.137 71.3222 202.167 70.9445L200.39 71.2889C200.322 71.3004 200.253 71.3066 200.184 71.3074C199.936 71.3074 199.697 71.221 199.514 71.065C199.33 70.9091 199.214 70.6947 199.19 70.4634C199.165 70.2322 199.233 70.0007 199.38 69.8137C199.528 69.6268 199.744 69.4978 199.987 69.4519L204.024 68.6741C204.536 68.5764 204.999 68.3244 205.343 67.9565C205.686 67.5885 205.892 67.1251 205.928 66.637L204.143 66.9815C204.076 66.9931 204.009 66.9993 203.941 67C203.71 66.9998 203.486 66.9244 203.307 66.7866C203.128 66.6489 203.006 66.4572 202.961 66.2445C202.855 65.7333 203.222 65.2445 203.763 65.1407L207.75 64.3741C208.528 64.2222 208.982 63.6259 209.188 63.2852C209.366 62.9799 209.486 62.6478 209.543 62.3037L197 64.7185V73.6074L200.22 72.9889C200.537 72.9304 200.839 72.8132 201.108 72.644C201.376 72.4749 201.606 72.2572 201.784 72.0037Z"
                  fill="#CC0000"/>
            <path d="M205 58C201.488 58 198.422 58.6667 197 59.6259V62.8037L210.76 60.1556C210.901 60.1293 211.047 60.1561 211.167 60.2304C211.287 60.3046 211.371 60.4201 211.4 60.5519L211.491 60.9704C211.724 62.0296 211.519 63.2037 210.934 64.1926C210.298 65.2704 209.306 65.9852 208.149 66.2111L207.931 66.2519C207.985 67.1512 207.719 68.0418 207.177 68.7852C206.529 69.6852 205.514 70.3 204.376 70.5185L204.166 70.5593C204.22 71.4399 203.967 72.313 203.447 73.0481C203.131 73.5009 202.722 73.8904 202.244 74.1943C201.766 74.4981 201.228 74.7103 200.662 74.8185L197 75.5222V76.3741C198.422 77.3333 201.488 78 205 78C208.512 78 211.578 77.3333 213 76.3741V59.6259C211.578 58.6667 208.512 58 205 58Z"
                  fill="#CC0000"/>
            <rect x="204" y="82" width="2" height="20" rx="1" fill="#336DC2"/>
            <path d="M117 159H293V163C293 165.209 291.209 167 289 167H121C118.791 167 117 165.209 117 163V159Z" fill="black" fill-opacity="0.87"/>
            <path d="M185 159H225C225 161.209 223.209 163 221 163H189C186.791 163 185 161.209 185 159Z" fill="#767676"/>
        </g>
    </defs>
</svg>
