<svg width="16" height="16" viewBox="0 0 16 16" fill="none" xmlns="http://www.w3.org/2000/svg" class="symbol">
    <defs>
        <g id="database">
            <path fill-rule="evenodd" clip-rule="evenodd"
                  d="M8.29088 15.209C6.42714 15.2854 4.57475 14.8849 2.90906 14.0453V10.9908C4.60729 11.7186 6.44415 12.0661 8.29088 12.009C10.1376 12.0658 11.9744 11.7183 13.6727 10.9908V14.0453C12.0078 14.887 10.1548 15.2877 8.29088 15.209ZM8.29088 10.6999C6.42714 10.7763 4.57475 10.3758 2.90906 9.53625V6.4817C4.60729 7.20947 6.44415 7.55698 8.29088 7.49989C10.1376 7.55675 11.9744 7.20924 13.6727 6.4817V9.53625C12.0078 10.3779 10.1548 10.7786 8.29088 10.6999ZM13.6727 4.88171C12.6545 5.60898 10.6181 6.11807 8.29088 6.11807C6.42714 6.19448 4.57475 5.79396 2.90906 4.95443V1.89989C3.92724 1.17262 5.9636 0.736252 8.29088 0.736252C10.1546 0.659842 12.007 1.06036 13.6727 1.89989V4.88171Z"
                  fill="#B6B6B6"/>
        </g>
    </defs>
</svg>
