<svg width="40" height="40" viewBox="0 0 40 40" fill="none" xmlns="http://www.w3.org/2000/svg" class="symbol">
    <defs>
        <g id="flyway-upgrade-icon">
            <clipPath id="url(#clip0_332_20657)">
                <path d="M7.61785 22.7835C7.96956 22.2673 8.17945 21.6743 8.22803 21.0596L5.39729 21.6202C5.28931 21.6389 5.1799 21.649 5.07018 21.6503C4.6755 21.6503 4.29493 21.5097 4.00235 21.2559C3.70977 21.0021 3.52605 20.6531 3.48685 20.2768C3.44766 19.9005 3.55579 19.5237 3.79025 19.2195C4.02471 18.9153 4.36877 18.7054 4.75565 18.6306L11.1846 17.3648C11.9988 17.2059 12.7361 16.7957 13.2837 16.1969C13.8314 15.5982 14.1591 14.8439 14.2166 14.0497L11.3733 14.6103C11.2675 14.6292 11.1601 14.6393 11.0525 14.6404C10.6841 14.6401 10.3273 14.5174 10.0428 14.2931C9.75828 14.0689 9.56377 13.7571 9.49243 13.4108C9.32258 12.579 9.9076 11.7834 10.7694 11.6146L17.1166 10.3669C18.3558 10.1198 19.0792 9.14936 19.4063 8.59484C19.6906 8.09802 19.8822 7.55749 19.9725 6.99756L0 10.9275V25.3934L5.12679 24.3868C5.63241 24.2917 6.11314 24.1009 6.54087 23.8256C6.9686 23.5503 7.33473 23.196 7.61785 22.7835Z"
                      fill="#B6B6B6"/>
                <path fill-rule="evenodd" clip-rule="evenodd"
                      d="M0 2.64606C2.2646 1.08494 7.14606 0 12.7384 0C18.3306 0 23.2121 1.08494 25.4767 2.64606V15.3684L22.3724 15.3724L22.3567 15.3726C20.8501 15.3883 19.4994 16.2623 18.9198 17.5925C18.3397 18.9237 18.6413 20.4615 19.6947 21.4997L19.7103 21.5151L20.6053 22.3727L10.0728 32.4648C5.62654 32.1826 1.89605 31.2093 0 29.9023V28.516L5.83133 27.3707C6.73236 27.1946 7.58809 26.8493 8.34923 26.3548C9.11037 25.8603 9.76186 25.2264 10.2662 24.4896C11.0942 23.2933 11.4958 21.8723 11.411 20.4391L11.7444 20.3728C13.5561 20.0172 15.1728 19.0167 16.2044 17.552C17.0683 16.3422 17.4907 14.8928 17.4059 13.4292L17.7519 13.3629C19.595 12.9952 21.174 11.8319 22.1867 10.0779C23.1178 8.46859 23.4449 6.55789 23.0737 4.83403L22.929 4.15293C22.8821 3.93849 22.7487 3.75047 22.5579 3.62971C22.3671 3.50895 22.1342 3.46521 21.91 3.50799L0 7.81763V2.64606Z"
                      fill="#B6B6B6"/>
                <path fill-rule="evenodd" clip-rule="evenodd"
                      d="M33.999 18.4275L22.2042 18.4393C21.9708 18.4418 21.7612 18.5773 21.6712 18.7838C21.5812 18.9902 21.6282 19.228 21.7908 19.3881L24.9217 22.3882L15.0136 31.8819L19.9573 36.6189L29.8654 27.1251L32.9882 30.1173C33.1553 30.273 33.4035 30.3181 33.619 30.2318C33.8345 30.1456 33.9758 29.9447 33.9784 29.7211L33.999 18.4275Z"
                      fill="#B6B6B6"/>
            </clipPath>
            <clipPath id="clip0_332_20657">
                <rect width="40" height="40" fill="white"/>
            </clipPath>
        </g>
    </defs>
</svg>
